<?xml version="1.0" encoding="utf-8"?>
<svg version="1.1" xmlns:xlink="http://www.w3.org/1999/xlink" width="60px" height="59px" xmlns="http://www.w3.org/2000/svg">
  <g transform="matrix(1 0 0 1 -766 -444 )">
    <path d="M 36.796875 36.18359375  C 39.9579326923077 33.0752203525641  41.5384615384615 29.3345352564103  41.5384615384615 24.9615384615385  C 41.5384615384615 20.5885416666667  39.9579326923077 16.8478565705128  36.796875 13.7394831730769  C 33.6358173076923 10.631109775641  29.8317307692308 9.07692307692308  25.3846153846154 9.07692307692308  C 20.9375 9.07692307692308  17.1334134615385 10.631109775641  13.9723557692308 13.7394831730769  C 10.8112980769231 16.8478565705128  9.23076923076923 20.5885416666667  9.23076923076923 24.9615384615385  C 9.23076923076923 29.3345352564103  10.8112980769231 33.0752203525641  13.9723557692308 36.18359375  C 17.1334134615385 39.2919671474359  20.9375 40.8461538461538  25.3846153846154 40.8461538461538  C 29.8317307692308 40.8461538461538  33.6358173076923 39.2919671474359  36.796875 36.18359375  Z M 58.6658653846154 51.2704326923077  C 59.5552884615385 52.1450320512821  60 53.208733974359  60 54.4615384615385  C 60 55.6907051282051  59.5432692307692 56.7544070512821  58.6298076923077 57.6526442307692  C 57.7163461538462 58.5508814102564  56.6346153846154 59  55.3846153846154 59  C 54.0865384615385 59  53.0048076923077 58.5508814102564  52.1394230769231 57.6526442307692  L 39.7716346153846 45.5264423076923  C 35.46875 48.4575320512821  30.6730769230769 49.9230769230769  25.3846153846154 49.9230769230769  C 21.9471153846154 49.9230769230769  18.6598557692308 49.2671274038462  15.5228365384615 47.9552283653846  C 12.3858173076923 46.6433293269231  9.68149038461539 44.8704927884615  7.40985576923077 42.63671875  C 5.13822115384615 40.4029447115385  3.33533653846154 37.7436899038462  2.00120192307692 34.6589543269231  C 0.667067307692308 31.57421875  0 28.3417467948718  0 24.9615384615385  C 0 21.5813301282051  0.667067307692308 18.3488581730769  2.00120192307692 15.2641225961538  C 3.33533653846154 12.1793870192308  5.13822115384615 9.52013221153847  7.40985576923077 7.28635817307692  C 9.68149038461539 5.05258413461539  12.3858173076923 3.27974759615384  15.5228365384615 1.96784855769231  C 18.6598557692308 0.655949519230768  21.9471153846154 0  25.3846153846154 0  C 28.8221153846154 0  32.109375 0.655949519230768  35.2463942307692 1.96784855769231  C 38.3834134615385 3.27974759615384  41.0877403846154 5.05258413461539  43.359375 7.28635817307692  C 45.6310096153846 9.52013221153847  47.4338942307692 12.1793870192308  48.7680288461538 15.2641225961538  C 50.1021634615385 18.3488581730769  50.7692307692308 21.5813301282051  50.7692307692308 24.9615384615385  C 50.7692307692308 30.161858974359  49.2788461538462 34.8776041666667  46.2980769230769 39.1087740384615  L 58.6658653846154 51.2704326923077  Z " fill-rule="nonzero" fill="#000000" stroke="none" transform="matrix(1 0 0 1 766 444 )" />
  </g>
</svg>